<?xml version="1.0" encoding="UTF-8" standalone="no"?>
<!-- Created with Inkscape (http://www.inkscape.org/) -->

<svg
   width="144.33875mm"
   height="54.805111mm"
   viewBox="0 0 144.33875 54.805111"
   version="1.1"
   id="svg1"
   xml:space="preserve"
   sodipodi:docname="Signature.svg"
   inkscape:version="1.3.2 (091e20e, 2023-11-25, custom)"
   xmlns:inkscape="http://www.inkscape.org/namespaces/inkscape"
   xmlns:sodipodi="http://sodipodi.sourceforge.net/DTD/sodipodi-0.dtd"
   xmlns="http://www.w3.org/2000/svg"
   xmlns:svg="http://www.w3.org/2000/svg"><sodipodi:namedview
     id="namedview1"
     pagecolor="#ffffff"
     bordercolor="#000000"
     borderopacity="0.25"
     inkscape:showpageshadow="2"
     inkscape:pageopacity="0.0"
     inkscape:pagecheckerboard="0"
     inkscape:deskcolor="#d1d1d1"
     inkscape:document-units="mm"
     inkscape:zoom="1.8525553"
     inkscape:cx="429.94668"
     inkscape:cy="177.86244"
     inkscape:window-width="2400"
     inkscape:window-height="1494"
     inkscape:window-x="-11"
     inkscape:window-y="-11"
     inkscape:window-maximized="1"
     inkscape:current-layer="layer1" /><defs
     id="defs1"><inkscape:path-effect
       effect="bspline"
       id="path-effect16"
       is_visible="true"
       lpeversion="1.3"
       weight="33.333333"
       steps="2"
       helper_size="0"
       apply_no_weight="true"
       apply_with_weight="true"
       only_selected="false"
       uniform="false" /><inkscape:path-effect
       effect="bspline"
       id="path-effect11"
       is_visible="true"
       lpeversion="1.3"
       weight="33.333333"
       steps="2"
       helper_size="0"
       apply_no_weight="true"
       apply_with_weight="true"
       only_selected="false"
       uniform="false" /><inkscape:path-effect
       effect="bspline"
       id="path-effect10"
       is_visible="true"
       lpeversion="1.3"
       weight="33.333333"
       steps="2"
       helper_size="0"
       apply_no_weight="true"
       apply_with_weight="true"
       only_selected="false"
       uniform="false" /><inkscape:path-effect
       effect="bspline"
       id="path-effect9"
       is_visible="true"
       lpeversion="1.3"
       weight="33.333333"
       steps="2"
       helper_size="0"
       apply_no_weight="true"
       apply_with_weight="true"
       only_selected="false"
       uniform="false" /><inkscape:path-effect
       effect="bspline"
       id="path-effect8"
       is_visible="true"
       lpeversion="1.3"
       weight="33.333333"
       steps="2"
       helper_size="0"
       apply_no_weight="true"
       apply_with_weight="true"
       only_selected="false"
       uniform="false" /></defs><g
     inkscape:label="Ebene 1"
     inkscape:groupmode="layer"
     id="layer1"
     transform="translate(-45.216239,-114.47187)"><path
       style="fill:none;stroke:#000000;stroke-width:0.865;stroke-linecap:round;stroke-dasharray:none;stroke-opacity:1"
       d="m 117.68313,126.18535 c -11.64735,13.72106 -23.294695,27.44212 -29.343025,34.57915 -6.04833,7.13703 -6.497622,7.69 -6.255681,7.10243 0.241941,-0.58756 1.175092,-2.31562 2.21196,-4.3548 1.036868,-2.03917 2.177387,-4.38933 3.698128,-8.17391 1.520741,-3.78457 3.421607,-9.00331 4.613996,-13.54823 1.192389,-4.54492 1.676245,-8.41577 1.607114,-11.47452 -0.06913,-3.05875 -0.691232,-5.30523 -1.13743,-6.64701 -0.446197,-1.34179 -0.71647,-1.77883 -1.663396,-2.67384 -0.946925,-0.89501 -2.57044,-2.24794 -4.605364,-3.32075 -2.034923,-1.07281 -4.481127,-1.86543 -7.467231,-2.30958 -2.986104,-0.44416 -6.511917,-0.53982 -9.892971,-0.40042 -3.381055,0.1394 -6.61715,0.51385 -9.672945,1.21083 -3.055794,0.69699 -5.931109,1.71647 -8.203818,2.82618 -2.272709,1.10971 -3.942686,2.30958 -4.882923,3.31132 -0.940238,1.00174 -1.150694,1.8053 -0.998993,2.50365 0.1517,0.69835 0.665537,1.29145 1.399422,1.77797 0.733884,0.48653 1.687771,0.86644 3.155543,1.12746 1.467772,0.26103 3.449332,0.40315 6.270076,0.34985 2.820744,-0.0533 6.480482,-0.30202 10.726624,-0.72431 4.246141,-0.42229 9.07842,-1.01812 13.875309,-1.58118 4.79689,-0.56305 9.558104,-1.09329 14.290759,-1.57571 4.732656,-0.48243 9.436476,-0.917 14.241566,-1.20673 4.80509,-0.28972 9.71117,-0.43458 14.39599,-0.30885 4.68482,0.12574 9.14812,0.52205 13.14142,1.17257 3.99331,0.65052 7.51639,1.55521 10.69928,2.77288 3.18289,1.21768 6.0254,2.74826 8.04938,4.00829 2.02398,1.26004 3.22932,2.24946 4.17366,3.32227 0.94434,1.07281 1.62764,2.22894 2.02259,3.84568 0.39496,1.61673 0.50155,3.69396 0.19406,5.73707 -0.3075,2.04312 -1.02906,4.05202 -2.17841,6.13614 -1.14934,2.08412 -2.72639,4.24334 -4.94035,6.36025 -2.21395,2.11692 -5.06467,4.19141 -8.361,6.02817 -3.29633,1.83675 -7.03806,3.43566 -11.29787,4.63693 -4.25981,1.20127 -9.03742,2.00483 -13.28355,2.13192 -4.24613,0.12709 -7.96053,-0.42228 -10.98626,-1.62766 -3.02572,-1.20538 -5.3626,-3.06668 -6.76612,-4.9991 -1.40352,-1.93242 -1.87363,-3.93585 -1.75063,-5.59494 0.123,-1.65909 0.8391,-2.97376 2.00621,-4.34586 1.16711,-1.3721 2.78516,-2.80156 4.20509,-3.8648 1.41993,-1.06324 2.64167,-1.76021 3.33865,-2.14833 0.69698,-0.38812 0.86916,-0.46738 0.67646,-0.0109 -0.19269,0.45646 -0.75027,1.4486 -0.88556,2.07315 -0.13529,0.62455 0.15169,0.88147 0.62181,0.77897 0.47013,-0.1025 1.12336,-0.56441 1.67083,-1.05771 0.54747,-0.4933 0.98914,-1.01796 1.26671,-1.37886 0.27757,-0.3609 0.39098,-0.55797 0.4589,-0.72202 0.0679,-0.16406 0.0902,-0.29481 -0.037,-0.35485 -0.12729,-0.06 -0.40401,-0.0492 -0.86358,0.41672 -0.45957,0.46596 -1.10187,1.38704 -1.40937,2.18925 -0.30749,0.80222 -0.28015,1.48552 0.0588,1.91191 0.33893,0.42638 0.98942,0.59584 1.65771,0.35804 0.66828,-0.2378 1.35431,-0.88283 2.42439,-2.06771 1.07008,-1.18488 2.52414,-2.90952 4.233,-5.47338 1.70887,-2.56385 3.67239,-5.96666 3.1271,-5.1781 -0.5453,0.78855 -3.5994,5.76848 -5.32738,8.65483 -1.72798,2.88635 -2.12976,3.67898 -2.13249,4.25023 -0.003,0.57125 0.39358,0.9211 1.12747,0.73933 0.73389,-0.18177 1.8053,-0.89513 2.5196,-1.50494 0.7143,-0.60981 1.07145,-1.11602 0.91265,-1.43393 -0.15881,-0.31792 -0.83355,-0.44749 -1.43272,-0.25108 -0.59916,0.19642 -1.12268,0.7188 -1.3875,1.33178 -0.26483,0.61298 -0.27093,1.31648 0.22756,1.31442 0.49848,-0.002 1.50151,-0.70969 1.85857,-0.67589 0.35706,0.0338 0.0682,0.80899 0.22194,1.00004 0.15378,0.19104 0.75022,-0.2021 1.21037,-0.63716 0.46016,-0.43505 0.784,-0.91198 1.01415,-1.39327 0.23015,-0.48128 0.36661,-0.96689 0.44288,-1.21775 0.0763,-0.25086 0.0923,-0.26686 -0.10235,0.38531 -0.19463,0.65216 -0.59997,1.97253 -0.81067,2.66482 -0.21071,0.6923 -0.22678,0.75653 -0.18064,0.75854 0.0461,0.002 0.15451,-0.0582 0.32433,-0.24684 0.16981,-0.18866 0.40107,-0.50574 0.45273,-0.82882 0.0517,-0.32308 -0.0763,-0.65208 -0.0592,-0.95733 0.0171,-0.30524 0.17916,-0.58652 0.53728,-0.72819 0.35813,-0.14167 0.91225,-0.14367 1.46639,-0.14567"
       id="path10"
       sodipodi:nodetypes="cccccccccccccccccccccccccccccccccccccccccccccccccccccccccccccccccccccccccccc"
       inkscape:original-d="m 117.68313,126.18535 c -11.64735,13.72106 -23.294691,27.44212 -34.942038,41.16317 -0.449313,0.55301 -0.89861,1.10598 -1.347912,1.65897 0.933188,-1.72812 1.866339,-3.45618 2.799508,-5.18428 1.140566,-2.35025 2.281084,-4.70041 3.421626,-7.05062 1.900939,-5.21894 3.801804,-10.43768 5.702708,-15.65652 0.483875,-3.871 0.967732,-7.74185 1.451597,-11.61278 -0.622126,-2.24657 -1.244227,-4.49305 -1.86634,-6.73956 -0.270282,-0.43706 -0.540554,-0.8741 -0.810831,-1.31114 -1.623579,-1.35298 -3.247094,-2.70591 -4.87064,-4.05887 -2.446301,-0.79265 -4.892503,-1.58528 -7.338756,-2.37792 -3.525954,-0.0957 -7.051768,-0.19133 -10.577653,-0.28699 -3.236224,0.37446 -6.472319,0.74891 -9.708478,1.12336 -2.87543,1.01952 -5.750745,2.039 -8.626115,3.0585 -1.670047,1.19992 -3.340023,2.39979 -5.010036,3.59968 -0.210463,0.80359 -0.42092,1.60715 -0.631378,2.41072 0.513858,0.59313 1.027697,1.18623 1.541547,1.77935 0.953921,0.37992 1.907805,0.75984 2.861707,1.13976 1.981642,0.14213 3.963202,0.28426 5.944804,0.42638 3.659886,-0.24873 7.319624,-0.49745 10.979438,-0.74617 4.832469,-0.59586 9.664748,-1.19169 14.497122,-1.78754 4.761405,-0.53026 9.522619,-1.0605 14.283929,-1.59075 4.704001,-0.43459 9.407821,-0.86917 14.111731,-1.30376 4.90627,-0.14486 9.81235,-0.28972 14.71852,-0.43458 4.46347,0.39633 8.92677,0.79264 13.39016,1.18896 3.52322,0.90472 7.0463,1.80941 10.56945,2.71411 2.84263,1.53065 5.68514,3.06123 8.52772,4.59185 1.20538,0.98945 2.41072,1.97887 3.61608,2.9683 0.68332,1.15619 1.36662,2.31232 2.04993,3.46849 0.1066,2.0773 0.21319,4.15453 0.31979,6.23179 -0.72159,2.00897 -1.44315,4.01787 -2.16473,6.0268 -1.57711,2.15931 -3.15416,4.31853 -4.73124,6.47779 -2.85083,2.07457 -5.70155,4.14906 -8.55232,6.22359 -3.74189,1.59898 -7.48362,3.1979 -11.22543,4.79684 -4.77781,0.80359 -9.55542,1.60715 -14.33313,2.41072 -3.71455,-0.54939 -7.42895,-1.09876 -11.14343,-1.64814 -2.33697,-1.86138 -4.67385,-3.72268 -7.01077,-5.58402 -0.47013,-2.0035 -0.94024,-4.00693 -1.41035,-6.0104 0.71612,-1.31471 1.43222,-2.62938 2.14833,-3.94407 1.61811,-1.42951 3.23616,-2.85897 4.85424,-4.28846 1.22178,-0.69699 2.44352,-1.39395 3.66527,-2.09093 0.1722,-0.0793 0.34439,-0.15853 0.51659,-0.23779 -0.55759,0.99219 -1.11517,1.98433 -1.67275,2.9765 0.287,0.25693 0.57398,0.51385 0.86097,0.77078 0.65326,-0.46193 1.30649,-0.92384 1.95974,-1.38576 0.44169,-0.52468 0.88336,-1.04934 1.32504,-1.574 0.11346,-0.19714 0.22687,-0.39421 0.34037,-0.59142 0.0224,-0.13089 0.0447,-0.26164 0.067,-0.39253 -0.27692,0.0108 -0.55364,0.0216 -0.83046,0.0324 -0.64232,0.92112 -1.28462,1.8422 -1.92694,2.7633 0.0273,0.68333 0.0547,1.36663 0.082,2.04994 0.65053,0.16946 1.30102,0.33892 1.95154,0.50838 0.68605,-0.64506 1.37208,-1.29009 2.05813,-1.93514 1.45411,-1.72471 2.90817,-3.44935 4.36225,-5.17403 1.96365,-3.40303 3.92717,-6.80584 5.89081,-10.20886 -3.05423,4.98013 -6.10833,9.96006 -9.1625,14.94011 -0.40179,0.79265 -0.80357,1.58528 -1.20536,2.37792 0.39633,0.34986 0.79264,0.69971 1.18896,1.04957 1.07146,-0.7134 2.14287,-1.42676 3.2143,-2.14013 0.35717,-0.50625 0.71432,-1.01246 1.07149,-1.5187 -0.67478,-0.12959 -1.34952,-0.25917 -2.0243,-0.38875 -0.52355,0.52242 -1.04707,1.0448 -1.57062,1.56722 -0.006,0.70354 -0.0122,1.40704 -0.0183,2.11059 1.00307,-0.70767 2.0061,-1.4153 3.00914,-2.12295 -0.28892,0.77526 -0.57782,1.55044 -0.86674,2.3257 0.59648,-0.39317 1.19292,-0.78631 1.78938,-1.17947 0.32385,-0.47695 0.64769,-0.95388 0.97154,-1.43083 0.13646,-0.48562 0.27291,-0.97123 0.40936,-1.45685 0.0161,-0.0161 0.0321,-0.0321 0.0482,-0.0482 -0.40536,1.32043 -0.8107,2.6408 -1.21605,3.9612 -0.016,0.0642 -0.0321,0.12843 -0.0482,0.19264 0.10836,-0.0602 0.21672,-0.1204 0.32508,-0.1806 0.23127,-0.31711 0.46253,-0.63419 0.69379,-0.95129 -0.12794,-0.32906 -0.25586,-0.65806 -0.38382,-0.98717 0.16213,-0.28138 0.3242,-0.56266 0.4863,-0.844 0.55415,-0.002 1.10827,-0.004 1.66241,-0.006"
       inkscape:path-effect="#path-effect10" /><path
       style="fill:none;stroke:#000000;stroke-width:0.865;stroke-linecap:round;stroke-dasharray:none;stroke-opacity:1"
       d="m 109.18091,141.84187 c 4.59673,-0.10369 9.19346,-0.20737 22.51728,1.00232 13.32381,1.20969 35.37384,3.73265 57.4243,6.25567"
       id="path11"
       inkscape:original-d="m 109.18091,141.84187 c 4.59673,-0.10368 9.19346,-0.20737 13.79019,-0.31106 22.0509,2.52307 44.10093,5.04604 66.15139,7.56905"
       inkscape:path-effect="#path-effect11" /><path
       style="fill:none;fill-opacity:1;stroke:#000000;stroke-width:0.865;stroke-linecap:round;stroke-dasharray:none;stroke-opacity:1"
       d="m 134.53114,131.935 c -0.41856,-0.60128 -1.89109,-0.57359 -2.36936,-0.40247 -1.62757,0.58205 -4.29841,3.73649 -5.21274,6.4076 -0.30545,0.89258 -0.68001,1.54463 -0.53094,2.36922 0.13914,0.76872 0.91978,1.13323 1.24388,1.22753 0.52715,0.15226 1.4959,-0.25174 2.04176,-0.63175 1.48867,-1.03636 3.26045,-3.10376 4.60601,-6.32498 0.27796,-0.71322 0.78792,-2.44055 0.104,-2.75138"
       id="path14"
       sodipodi:nodetypes="cccssscc" /><path
       style="fill:none;fill-opacity:1;stroke:#000000;stroke-width:0.632849;stroke-linecap:round;stroke-linejoin:miter;stroke-dasharray:none;stroke-opacity:1"
       d="m 132.33005,140.9968 c -0.38191,-0.46277 -0.76355,-0.9252 -1.13994,-0.86747 -0.3764,0.0577 -0.74741,0.63579 -0.65813,1.00708 0.0893,0.37129 0.63886,0.53582 1.16622,0.27064 0.52736,-0.26519 1.0325,-0.9601 1.50713,-1.68148 0.47463,-0.72137 0.91876,-1.46921 1.69606,-2.39319 0.77729,-0.92399 1.8877,-2.02405 2.29651,-2.72063 0.4088,-0.69659 0.11598,-0.98965 -0.29288,-0.66957 -0.40886,0.32007 -0.93375,1.25327 -1.62529,2.36873 -0.69154,1.11546 -1.5497,2.41313 -2.1523,3.47112 -0.60261,1.05799 -0.94964,1.87626 -0.77584,1.96132 0.1738,0.0851 0.8684,-0.56306 1.27839,-0.96817 0.40998,-0.40511 0.53527,-0.56714 0.49539,-0.52052 -0.0399,0.0466 -0.24492,0.30188 -0.39842,0.5876 -0.15351,0.28572 -0.25547,0.60189 -0.22724,0.85071 0.0282,0.24883 0.18666,0.43029 0.49242,0.25322 0.30576,-0.17707 0.75884,-0.71265 1.00163,-1.0162 0.24278,-0.30356 0.2753,-0.37513 0.0921,-0.078 -0.18324,0.29716 -0.58222,0.96301 -0.52711,1.11982 0.0551,0.15681 0.56429,-0.19542 1.44729,-0.97848 0.883,-0.78306 2.1398,-1.99694 2.87243,-2.81328 0.73262,-0.81635 0.94105,-1.23515 0.86288,-1.44605 -0.0782,-0.21091 -0.44296,-0.21391 -0.95419,0.33432 -0.51123,0.54822 -1.1689,1.64767 -1.63174,2.37335 -0.46283,0.72568 -0.73082,1.07758 -1.00113,1.41595 -0.27031,0.33837 -0.54294,0.66321 -0.74325,0.85908 -0.20032,0.19587 -0.32832,0.26277 0.0198,-0.003 0.34809,-0.26588 1.17226,-0.86452 1.6485,-1.04197 0.47624,-0.17745 0.60451,0.0663 0.42401,0.26251 -0.18051,0.19621 -0.66979,0.34485 -0.87823,0.60221 -0.20845,0.25737 -0.13603,0.62341 0.14177,0.74755 0.2778,0.12415 0.76096,0.006 1.11295,-0.30226 0.35198,-0.30864 0.57272,-0.80799 0.90766,-1.00474 0.33493,-0.19675 0.78369,-0.0907 0.85627,0.25365 0.0726,0.34434 -0.23114,0.92691 -0.56798,1.24971 -0.33685,0.3228 -0.7068,0.38581 -0.88396,0.23288 -0.17717,-0.15293 -0.16153,-0.52179 -0.1459,-0.89066 m 1.05449,0.6572 c 0.26057,-0.15785 0.52114,-0.31569 0.74591,-0.2282 0.22477,0.0875 0.41375,0.42033 0.23194,0.80884 -0.1818,0.3885 -0.73438,0.83268 -1.83466,1.66217 -1.10027,0.8295 -2.74824,2.04431 -5.08772,2.13038 -2.33947,0.0861 -5.37038,-0.95661 -5.52411,-1.44881 -0.15373,-0.4922 2.56973,-0.4339 4.84694,-0.50528 2.27721,-0.0714 4.10813,-0.27243 5.38167,-0.62757 1.27353,-0.35515 1.98968,-0.86439 2.51503,-1.21958 0.52535,-0.3552 0.85987,-0.55634 1.12769,-0.90413 0.26781,-0.34779 0.46891,-0.84223 0.21423,-0.61025 -0.25467,0.23199 -0.96507,1.19034 -1.14736,1.00259 -0.1823,-0.18775 0.16354,-1.52159 0.11203,-1.6311 -0.0515,-0.10951 -0.50037,1.00533 -0.33322,1.60511 0.16715,0.59978 0.95029,0.68445 1.47149,0.48684 0.5212,-0.19761 0.78038,-0.67746 1.05988,-0.92181 0.27951,-0.24435 0.57887,-0.25314 0.68031,-0.26851 0.10145,-0.0154 0.004,-0.0372 -0.11228,-0.0456 -0.11671,-0.008 -0.25291,-0.003 -0.406,0.0898 -0.1531,0.0931 -0.32306,0.27406 -0.51234,0.54475 -0.18928,0.27068 -0.39786,0.63103 -0.42797,0.89845 -0.0301,0.26743 0.11826,0.44193 0.31175,0.50043 0.1935,0.0585 0.43212,9.8e-4 0.6793,-0.24769 0.24717,-0.24868 0.50266,-0.68808 0.67672,-0.99796 0.17407,-0.30988 0.26602,-0.48896 0.34655,-0.59272 0.0805,-0.10377 0.14925,-0.13174 -0.0673,0.23228 -0.21651,0.36403 -0.71737,1.1185 -0.80622,1.49058 -0.0889,0.37207 0.23478,0.36087 0.44431,0.23811 0.20953,-0.12276 0.30477,-0.35698 0.40002,-0.59123"
       id="path16"
       transform="matrix(1.9215983,0.05569474,-0.01619377,0.97176038,-117.10241,-3.3872162)"
       sodipodi:nodetypes="cccccccccccccccccccccccccccccccccccccccccccccccccccccccccccccccccc"
       inkscape:original-d="m 132.33005,140.9968 c -0.38191,-0.46277 -0.76355,-0.9252 -1.14532,-1.3878 -0.37102,0.57806 -0.74203,1.15612 -1.11304,1.73416 0.54957,0.16454 1.09915,0.32907 1.64873,0.49361 0.50514,-0.69491 1.01028,-1.38982 1.51541,-2.08473 0.44413,-0.74784 0.88826,-1.49568 1.3324,-2.24354 1.11045,-1.10011 2.22086,-2.20017 3.3313,-3.30027 -0.29282,-0.29307 -0.58565,-0.58613 -0.87847,-0.87919 -0.5249,0.93321 -1.04979,1.86641 -1.57469,2.79963 -0.85818,1.2977 -1.71634,2.59537 -2.57451,3.89307 -0.34703,0.81828 -0.69407,1.63655 -1.0411,2.45482 0.69463,-0.64815 1.38923,-1.29627 2.0839,-1.94445 0.1253,-0.16204 0.25058,-0.32407 0.37588,-0.4861 -0.20504,0.25527 -0.41009,0.51053 -0.61513,0.7658 -0.10197,0.31617 -0.20393,0.63234 -0.3059,0.94852 0.15843,0.18147 0.31686,0.36293 0.47529,0.54439 0.45309,-0.5356 0.90617,-1.07118 1.35926,-1.60678 0.0325,-0.0715 0.065,-0.14308 0.0975,-0.21462 -0.39898,0.66586 -0.79795,1.33171 -1.19694,1.99757 0.5092,-0.35224 1.01838,-0.70447 1.52757,-1.05671 1.25681,-1.21388 2.51361,-2.42776 3.77042,-3.64164 0.20844,-0.41881 0.41687,-0.83761 0.62531,-1.25642 -0.36478,-0.003 -0.72957,-0.006 -1.09435,-0.009 -0.65768,1.09945 -1.31535,2.1989 -1.97303,3.29835 -0.26799,0.35191 -0.53598,0.70381 -0.80397,1.05572 -0.27263,0.32483 -0.54526,0.64967 -0.81789,0.97451 -0.128,0.0669 -0.256,0.1338 -0.384,0.2007 0.82419,-0.59866 1.64836,-1.1973 2.47256,-1.79596 0.12828,0.24376 0.25655,0.48752 0.38483,0.73128 -0.48929,0.14864 -0.97857,0.29728 -1.46788,0.44594 0.0724,0.36608 0.14484,0.73212 0.21726,1.09819 0.48318,-0.11778 0.96634,-0.23556 1.44951,-0.35334 0.2208,-0.49949 0.44154,-0.99884 0.6624,-1.49846 0.44901,0.10612 0.89777,0.21218 1.34666,0.31828 -0.30373,0.58258 -0.60745,1.16515 -0.91118,1.74774 -0.36996,0.063 -0.73991,0.12602 -1.10987,0.18903 0.0156,-0.36887 0.0312,-0.73773 0.0469,-1.1066 m 1.05449,0.6572 c 0,0 0.52114,-0.31569 0.78171,-0.47354 0.18897,0.33283 0.37795,0.66567 0.56692,0.9985 -0.55258,0.44418 -1.10516,0.88836 -1.65773,1.33253 -1.64798,1.21482 -3.29595,2.42963 -4.94393,3.64445 -3.03097,-1.04269 -6.06188,-2.08536 -9.0929,-3.12806 2.72356,0.0583 5.44702,0.1166 8.17053,0.1749 1.83091,-0.20105 3.66183,-0.40211 5.49274,-0.60316 0.71616,-0.50924 1.43231,-1.01848 2.14848,-1.52772 0.33453,-0.20115 0.66905,-0.40229 1.00359,-0.60344 0.20109,-0.49443 0.40219,-0.98887 0.60329,-1.48332 -0.71045,0.95842 -1.42085,1.91677 -2.13129,2.87518 0.34585,-1.33391 0.69169,-2.66775 1.03754,-4.00165 -0.44888,1.11488 -0.89773,2.22972 -1.34661,3.3446 0.78318,0.0847 1.56632,0.16935 2.34951,0.25403 0.25921,-0.4799 0.51839,-0.95975 0.7776,-1.43965 0.29979,-0.009 0.59916,-0.0176 0.89934,-0.0264 -0.0973,-0.0219 -0.19432,-0.0438 -0.2915,-0.0657 -0.13623,0.005 -0.27243,0.0102 -0.40865,0.0153 -0.16997,0.18101 -0.33993,0.36202 -0.5099,0.54304 -0.20859,0.36035 -0.41717,0.7207 -0.62576,1.08105 0.14837,0.1745 0.29674,0.349 0.44511,0.5235 0.23862,-0.0575 0.47724,-0.11502 0.71586,-0.17253 0.25573,-0.43984 0.51122,-0.87924 0.76717,-1.31946 0.0922,-0.17953 0.18413,-0.35862 0.27628,-0.53809 0.0689,-0.0281 0.13764,-0.056 0.20656,-0.0841 -0.50196,0.75612 -1.00282,1.51059 -1.50426,2.26594 0.32373,-0.0112 0.64737,-0.0224 0.97115,-0.0336 0.0953,-0.23431 0.19052,-0.46854 0.28577,-0.70279"
       inkscape:path-effect="#path-effect16" /><ellipse
       style="fill:#040101;fill-opacity:1;fill-rule:nonzero;stroke:#000000;stroke-width:0.565;stroke-linecap:round;stroke-linejoin:miter;stroke-dasharray:none;stroke-opacity:1"
       id="path28"
       cx="115.23893"
       cy="139.54385"
       rx="0.31400079"
       ry="0.26376066" /></g></svg>
