<?xml version="1.0" encoding="UTF-8" standalone="no"?>
<!-- Created with Inkscape (http://www.inkscape.org/) -->

<svg
   width="144.33875mm"
   height="54.805111mm"
   viewBox="0 0 144.33875 54.805111"
   version="1.1"
   id="svg1"
   xml:space="preserve"
   sodipodi:docname="Signature-name.svg"
   inkscape:version="1.3.2 (091e20e, 2023-11-25, custom)"
   xmlns:inkscape="http://www.inkscape.org/namespaces/inkscape"
   xmlns:sodipodi="http://sodipodi.sourceforge.net/DTD/sodipodi-0.dtd"
   xmlns="http://www.w3.org/2000/svg"
   xmlns:svg="http://www.w3.org/2000/svg"><sodipodi:namedview
     id="namedview1"
     pagecolor="#ffffff"
     bordercolor="#000000"
     borderopacity="0.25"
     inkscape:showpageshadow="2"
     inkscape:pageopacity="0.0"
     inkscape:pagecheckerboard="0"
     inkscape:deskcolor="#d1d1d1"
     inkscape:document-units="mm"
     inkscape:zoom="1.7370889"
     inkscape:cx="210.12166"
     inkscape:cy="10.650002"
     inkscape:window-width="2400"
     inkscape:window-height="1494"
     inkscape:window-x="-11"
     inkscape:window-y="-11"
     inkscape:window-maximized="1"
     inkscape:current-layer="layer1" /><defs
     id="defs1"><inkscape:path-effect
       effect="bspline"
       id="path-effect16"
       is_visible="true"
       lpeversion="1.3"
       weight="33.333333"
       steps="2"
       helper_size="0"
       apply_no_weight="true"
       apply_with_weight="true"
       only_selected="false"
       uniform="false" /><inkscape:path-effect
       effect="bspline"
       id="path-effect11"
       is_visible="true"
       lpeversion="1.3"
       weight="33.333333"
       steps="2"
       helper_size="0"
       apply_no_weight="true"
       apply_with_weight="true"
       only_selected="false"
       uniform="false" /><inkscape:path-effect
       effect="bspline"
       id="path-effect10"
       is_visible="true"
       lpeversion="1.3"
       weight="33.333333"
       steps="2"
       helper_size="0"
       apply_no_weight="true"
       apply_with_weight="true"
       only_selected="false"
       uniform="false" /><inkscape:path-effect
       effect="bspline"
       id="path-effect9"
       is_visible="true"
       lpeversion="1.3"
       weight="33.333333"
       steps="2"
       helper_size="0"
       apply_no_weight="true"
       apply_with_weight="true"
       only_selected="false"
       uniform="false" /><inkscape:path-effect
       effect="bspline"
       id="path-effect8"
       is_visible="true"
       lpeversion="1.3"
       weight="33.333333"
       steps="2"
       helper_size="0"
       apply_no_weight="true"
       apply_with_weight="true"
       only_selected="false"
       uniform="false" /></defs><g
     inkscape:label="Ebene 1"
     inkscape:groupmode="layer"
     id="layer1"
     transform="translate(-45.216239,-114.47187)"><path
       style="fill:none;stroke:#000000;stroke-width:0.865;stroke-linecap:round;stroke-dasharray:none;stroke-opacity:1"
       d="m 117.68313,126.18535 c -11.64735,13.72106 -23.294695,27.44212 -29.343025,34.57915 -6.04833,7.13703 -6.497622,7.69 -6.255681,7.10243 0.241941,-0.58756 1.175092,-2.31562 2.21196,-4.3548 1.036868,-2.03917 2.177387,-4.38933 3.698128,-8.17391 1.520741,-3.78457 3.421607,-9.00331 4.613996,-13.54823 1.192389,-4.54492 1.676245,-8.41577 1.607114,-11.47452 -0.06913,-3.05875 -0.691232,-5.30523 -1.13743,-6.64701 -0.446197,-1.34179 -0.71647,-1.77883 -1.663396,-2.67384 -0.946925,-0.89501 -2.57044,-2.24794 -4.605364,-3.32075 -2.034923,-1.07281 -4.481127,-1.86543 -7.467231,-2.30958 -2.986104,-0.44416 -6.511917,-0.53982 -9.892971,-0.40042 -3.381055,0.1394 -6.61715,0.51385 -9.672945,1.21083 -3.055794,0.69699 -5.931109,1.71647 -8.203818,2.82618 -2.272709,1.10971 -3.942686,2.30958 -4.882923,3.31132 -0.940238,1.00174 -1.150694,1.8053 -0.998993,2.50365 0.1517,0.69835 0.665537,1.29145 1.399422,1.77797 0.733884,0.48653 1.687771,0.86644 3.155543,1.12746 1.467772,0.26103 3.449332,0.40315 6.270076,0.34985 2.820744,-0.0533 6.480482,-0.30202 10.726624,-0.72431 4.246141,-0.42229 9.07842,-1.01812 13.875309,-1.58118 4.79689,-0.56305 9.558104,-1.09329 14.290759,-1.57571 4.732656,-0.48243 9.436476,-0.917 14.241566,-1.20673 4.80509,-0.28972 9.71117,-0.43458 14.39599,-0.30885 4.68482,0.12574 9.14812,0.52205 13.14142,1.17257 3.99331,0.65052 7.51639,1.55521 10.69928,2.77288 3.18289,1.21768 6.0254,2.74826 8.04938,4.00829 2.02398,1.26004 3.22932,2.24946 4.17366,3.32227 0.94434,1.07281 1.62764,2.22894 2.02259,3.84568 0.39496,1.61673 0.50155,3.69396 0.19406,5.73707 -0.3075,2.04312 -1.02906,4.05202 -2.17841,6.13614 -1.14934,2.08412 -2.72639,4.24334 -4.94035,6.36025 -2.21395,2.11692 -5.06467,4.19141 -8.361,6.02817 -3.29633,1.83675 -7.03806,3.43566 -11.29787,4.63693 -4.25981,1.20127 -9.03742,2.00483 -13.28355,2.13192 -4.24613,0.12709 -7.96053,-0.42228 -10.98626,-1.62766 -3.02572,-1.20538 -5.3626,-3.06668 -6.76612,-4.9991 -1.40352,-1.93242 -1.87363,-3.93585 -1.75063,-5.59494 0.123,-1.65909 0.8391,-2.97376 2.00621,-4.34586 1.16711,-1.3721 2.78516,-2.80156 4.20509,-3.8648 1.41993,-1.06324 2.64167,-1.76021 3.33865,-2.14833 0.69698,-0.38812 0.86916,-0.46738 0.67646,-0.0109 -0.19269,0.45646 -0.75027,1.4486 -0.88556,2.07315 -0.13529,0.62455 0.15169,0.88147 0.62181,0.77897 0.47013,-0.1025 1.12336,-0.56441 1.72151,-1.038 0.59814,-0.4736 1.14115,-0.95884 1.61015,-1.3113 0.469,-0.35245 0.8638,-0.57202 1.15703,-0.4967 0.29323,0.0753 0.48432,0.44529 0.46968,0.38525 -0.0146,-0.06 -0.23508,-0.55015 -0.84667,-0.39105 -0.6116,0.1591 -1.61421,0.96756 -2.22575,1.76134 -0.61153,0.79378 -0.83193,1.5728 -0.61687,2.04704 0.21507,0.47424 0.86556,0.6437 1.53385,0.4059 0.66828,-0.2378 1.35431,-0.88283 2.42439,-2.06771 1.07008,-1.18488 2.52414,-2.90952 4.233,-5.47338 1.70887,-2.56385 3.67239,-5.96666 3.1271,-5.1781 -0.5453,0.78855 -3.5994,5.76848 -5.32738,8.65483 -1.72798,2.88635 -2.12976,3.67898 -2.13249,4.25023 -0.003,0.57125 0.39358,0.9211 1.16527,0.854 0.77169,-0.0671 1.91866,-0.55114 2.74562,-1.14903 0.82697,-0.59789 1.3338,-1.30955 1.30331,-1.8496 -0.0305,-0.54005 -0.5983,-0.90844 -1.29623,-0.73832 -0.69792,0.17012 -1.52588,0.87872 -1.95808,1.56138 -0.4322,0.68267 -0.46859,1.33931 -0.15966,1.68711 0.30892,0.34779 0.96309,0.38668 1.4633,0.26509 0.50021,-0.12159 0.84635,-0.40363 1.19157,-0.63289 0.34523,-0.22926 0.68947,-0.40568 1.16869,-0.9074 0.47922,-0.50173 1.09337,-1.3287 1.28032,-1.67258 0.18694,-0.34388 -0.0528,-0.20493 -0.25928,0.075 -0.20646,0.2799 -0.37752,0.69754 -0.60691,1.28364 -0.22938,0.5861 -0.51483,1.33493 -0.68157,1.76492 -0.16673,0.43 -0.21418,0.53962 -0.17303,0.47981 0.0411,-0.0598 0.17084,-0.28901 0.3113,-0.53727 0.14046,-0.24826 0.29165,-0.51553 0.49469,-0.81814 0.20303,-0.30262 0.45785,-0.6405 0.72958,-0.87506 0.27172,-0.23457 0.56015,-0.36564 0.88251,-0.46558 0.32236,-0.0999 0.67855,-0.16871 1.03477,-0.23748"
       id="path10"
       sodipodi:nodetypes="cccccccccccccccccccccccccccccccccccccccccccccccccccccccccccccccccccccccccccc"
       inkscape:original-d="m 117.68313,126.18535 c -11.64735,13.72106 -23.294691,27.44212 -34.942038,41.16317 -0.449313,0.55301 -0.89861,1.10598 -1.347912,1.65897 0.933188,-1.72812 1.866339,-3.45618 2.799508,-5.18428 1.140566,-2.35025 2.281084,-4.70041 3.421626,-7.05062 1.900939,-5.21894 3.801804,-10.43768 5.702708,-15.65652 0.483875,-3.871 0.967732,-7.74185 1.451597,-11.61278 -0.622126,-2.24657 -1.244227,-4.49305 -1.86634,-6.73956 -0.270282,-0.43706 -0.540554,-0.8741 -0.810831,-1.31114 -1.623579,-1.35298 -3.247094,-2.70591 -4.87064,-4.05887 -2.446301,-0.79265 -4.892503,-1.58528 -7.338756,-2.37792 -3.525954,-0.0957 -7.051768,-0.19133 -10.577653,-0.28699 -3.236224,0.37446 -6.472319,0.74891 -9.708478,1.12336 -2.87543,1.01952 -5.750745,2.039 -8.626115,3.0585 -1.670047,1.19992 -3.340023,2.39979 -5.010036,3.59968 -0.210463,0.80359 -0.42092,1.60715 -0.631378,2.41072 0.513858,0.59313 1.027697,1.18623 1.541547,1.77935 0.953921,0.37992 1.907805,0.75984 2.861707,1.13976 1.981642,0.14213 3.963202,0.28426 5.944804,0.42638 3.659886,-0.24873 7.319624,-0.49745 10.979438,-0.74617 4.832469,-0.59586 9.664748,-1.19169 14.497122,-1.78754 4.761405,-0.53026 9.522619,-1.0605 14.283929,-1.59075 4.704001,-0.43459 9.407821,-0.86917 14.111731,-1.30376 4.90627,-0.14486 9.81235,-0.28972 14.71852,-0.43458 4.46347,0.39633 8.92677,0.79264 13.39016,1.18896 3.52322,0.90472 7.0463,1.80941 10.56945,2.71411 2.84263,1.53065 5.68514,3.06123 8.52772,4.59185 1.20538,0.98945 2.41072,1.97887 3.61608,2.9683 0.68332,1.15619 1.36662,2.31232 2.04993,3.46849 0.1066,2.0773 0.21319,4.15453 0.31979,6.23179 -0.72159,2.00897 -1.44315,4.01787 -2.16473,6.0268 -1.57711,2.15931 -3.15416,4.31853 -4.73124,6.47779 -2.85083,2.07457 -5.70155,4.14906 -8.55232,6.22359 -3.74189,1.59898 -7.48362,3.1979 -11.22543,4.79684 -4.77781,0.80359 -9.55542,1.60715 -14.33313,2.41072 -3.71455,-0.54939 -7.42895,-1.09876 -11.14343,-1.64814 -2.33697,-1.86138 -4.67385,-3.72268 -7.01077,-5.58402 -0.47013,-2.0035 -0.94024,-4.00693 -1.41035,-6.0104 0.71612,-1.31471 1.43222,-2.62938 2.14833,-3.94407 1.61811,-1.42951 3.23616,-2.85897 4.85424,-4.28846 1.22178,-0.69699 2.44352,-1.39395 3.66527,-2.09093 0.1722,-0.0793 0.34439,-0.15853 0.51659,-0.23779 -0.55759,0.99219 -1.11517,1.98433 -1.67275,2.9765 0.287,0.25693 0.57398,0.51385 0.86097,0.77078 0.65326,-0.46193 1.30649,-0.92384 1.95974,-1.38576 0.54304,-0.48527 1.08605,-0.97051 1.62908,-1.45576 0.39497,-0.21967 0.78977,-0.43923 1.18491,-0.65899 0.19132,0.37041 0.38241,0.74037 0.57372,1.11076 -0.22059,-0.49047 -0.44103,-0.98058 -0.66155,-1.47089 -1.00267,0.80851 -2.00528,1.61697 -3.00795,2.42549 -0.22041,0.77904 -0.4408,1.55806 -0.6612,2.33708 0.65053,0.16946 1.30102,0.33892 1.95154,0.50838 0.68605,-0.64506 1.37208,-1.29009 2.05813,-1.93514 1.45411,-1.72471 2.90817,-3.44935 4.36225,-5.17403 1.96365,-3.40303 3.92717,-6.80584 5.89081,-10.20886 -3.05423,4.98013 -6.10833,9.96006 -9.1625,14.94011 -0.40179,0.79265 -0.80357,1.58528 -1.20536,2.37792 0.39633,0.34986 0.79264,0.69971 1.18896,1.04957 1.14706,-0.48407 2.29403,-0.9681 3.4411,-1.45218 0.50686,-0.7117 1.01369,-1.42336 1.52055,-2.13506 -0.56784,-0.3684 -1.13565,-0.73679 -1.70349,-1.10519 -0.82801,0.70864 -1.65597,1.41724 -2.48398,2.12588 -0.0364,0.65669 -0.0728,1.31333 -0.10917,1.97003 0.65424,0.0389 1.30841,0.0778 1.96266,0.11668 0.34617,-0.28208 0.69231,-0.56412 1.03848,-0.8462 0.34428,-0.17644 0.68852,-0.35286 1.03279,-0.5293 0.61417,-0.82701 1.22832,-1.65398 1.8425,-2.48099 -0.24029,0.13925 -0.48005,0.2782 -0.72083,0.41773 -0.17214,0.42027 -0.3432,0.83791 -0.51534,1.25817 -0.28663,0.75194 -0.57208,1.50077 -0.85812,2.25115 -0.0474,0.10962 -0.0949,0.21922 -0.14231,0.32884 0.12972,-0.22924 0.25942,-0.45843 0.38913,-0.68766 0.15121,-0.26729 0.3024,-0.53456 0.4536,-0.80184 0.25487,-0.33795 0.50969,-0.67583 0.7646,-1.01383 0.28854,-0.13113 0.57697,-0.2622 0.86546,-0.39331 0.35622,-0.0688 0.71242,-0.13754 1.06864,-0.20631"
       inkscape:path-effect="#path-effect10" /><path
       style="fill:none;stroke:#000000;stroke-width:0.865;stroke-linecap:round;stroke-dasharray:none;stroke-opacity:1"
       d="m 109.18091,141.84187 c 4.59673,-0.10369 9.19346,-0.20737 22.51728,1.00232 13.32381,1.20969 35.37384,3.73265 57.4243,6.25567"
       id="path11"
       inkscape:original-d="m 109.18091,141.84187 c 4.59673,-0.10368 9.19346,-0.20737 13.79019,-0.31106 22.0509,2.52307 44.10093,5.04604 66.15139,7.56905"
       inkscape:path-effect="#path-effect11" /><ellipse
       style="fill:#040101;fill-opacity:1;fill-rule:nonzero;stroke:#000000;stroke-width:0.565;stroke-linecap:round;stroke-linejoin:miter;stroke-dasharray:none;stroke-opacity:1"
       id="path28"
       cx="115.23893"
       cy="139.54385"
       rx="0.31400079"
       ry="0.26376066" /></g></svg>
